<svg
  viewBox="0 0 100 100"
  xmlns="http://www.w3.org/2000/svg"
>
  <rect x="10" y="10" width="80" height="80" fill="#fff" />
  <polygon points="0,10 10,0 20,10 30,0 40,10 50,0 60,10 70,0 80,10 90,0 100,10 100,20 0,20" fill="#ddd" />
  <polygon points="0,90 10,100 20,90 30,100 40,90 50,100 60,90 70,100 80,90 90,100 100,90 100,80 0,80" fill="#ddd" />
  <polygon points="10,0 0,10 10,20 0,30 10,40 0,50 10,60 0,70 10,80 0,90 10,100 20,100 20,0" fill="#ddd" />
  <polygon points="90,0 100,10 90,20 100,30 90,40 100,50 90,60 100,70 90,80 100,90 90,100 80,100 80,0" fill="#ddd" />
</svg>
